<mxfile host="app.diagrams.net" modified="2023-10-30T14:17:51.416Z" agent="Mozilla/5.0 (Windows NT 10.0; Win64; x64) AppleWebKit/537.36 (KHTML, like Gecko) Chrome/118.0.0.0 Safari/537.36" etag="kzMKQJKdsqClzEd4GtPz" version="22.0.8" type="device">
  <diagram name="Page-1" id="uHhpP0k8M9wipbLTruR9">
    <mxGraphModel dx="2250" dy="769" grid="1" gridSize="10" guides="1" tooltips="1" connect="1" arrows="1" fold="1" page="1" pageScale="1" pageWidth="850" pageHeight="1100" math="0" shadow="0">
      <root>
        <mxCell id="0" />
        <mxCell id="1" parent="0" />
        <mxCell id="I5j4CO6fwUK98QIkoyd3-1" value="Cashier" style="whiteSpace=wrap;html=1;align=center;" vertex="1" parent="1">
          <mxGeometry x="660" y="160" width="100" height="40" as="geometry" />
        </mxCell>
        <mxCell id="I5j4CO6fwUK98QIkoyd3-2" value="Accounting_System" style="whiteSpace=wrap;html=1;align=center;" vertex="1" parent="1">
          <mxGeometry x="1060" y="340" width="150" height="40" as="geometry" />
        </mxCell>
        <mxCell id="I5j4CO6fwUK98QIkoyd3-3" value="Receipt" style="whiteSpace=wrap;html=1;align=center;" vertex="1" parent="1">
          <mxGeometry x="960" y="160" width="100" height="40" as="geometry" />
        </mxCell>
        <mxCell id="I5j4CO6fwUK98QIkoyd3-4" value="InventorySystem" style="whiteSpace=wrap;html=1;align=center;" vertex="1" parent="1">
          <mxGeometry x="960" y="500" width="120" height="40" as="geometry" />
        </mxCell>
        <mxCell id="I5j4CO6fwUK98QIkoyd3-5" value="PriceRules" style="whiteSpace=wrap;html=1;align=center;" vertex="1" parent="1">
          <mxGeometry x="-110" y="250" width="100" height="40" as="geometry" />
        </mxCell>
        <mxCell id="I5j4CO6fwUK98QIkoyd3-6" value="Item" style="whiteSpace=wrap;html=1;align=center;" vertex="1" parent="1">
          <mxGeometry x="140" y="160" width="100" height="40" as="geometry" />
        </mxCell>
        <mxCell id="I5j4CO6fwUK98QIkoyd3-7" value="SaleLineItem" style="whiteSpace=wrap;html=1;align=center;" vertex="1" parent="1">
          <mxGeometry x="310" y="160" width="100" height="40" as="geometry" />
        </mxCell>
        <mxCell id="I5j4CO6fwUK98QIkoyd3-8" value="Sale" style="whiteSpace=wrap;html=1;align=center;" vertex="1" parent="1">
          <mxGeometry x="710" y="340" width="100" height="40" as="geometry" />
        </mxCell>
        <mxCell id="I5j4CO6fwUK98QIkoyd3-9" value="PAS" style="whiteSpace=wrap;html=1;align=center;" vertex="1" parent="1">
          <mxGeometry x="510" y="550" width="100" height="40" as="geometry" />
        </mxCell>
        <mxCell id="I5j4CO6fwUK98QIkoyd3-10" value="Company" style="whiteSpace=wrap;html=1;align=center;" vertex="1" parent="1">
          <mxGeometry x="360" y="480" width="100" height="40" as="geometry" />
        </mxCell>
        <mxCell id="I5j4CO6fwUK98QIkoyd3-11" value="Customer" style="whiteSpace=wrap;html=1;align=center;" vertex="1" parent="1">
          <mxGeometry x="730" y="550" width="100" height="40" as="geometry" />
        </mxCell>
        <mxCell id="I5j4CO6fwUK98QIkoyd3-12" value="SalesPerson" style="whiteSpace=wrap;html=1;align=center;" vertex="1" parent="1">
          <mxGeometry x="480" y="160" width="100" height="40" as="geometry" />
        </mxCell>
        <mxCell id="I5j4CO6fwUK98QIkoyd3-13" value="GovttTaxAgencies" style="whiteSpace=wrap;html=1;align=center;" vertex="1" parent="1">
          <mxGeometry x="370" y="340" width="120" height="40" as="geometry" />
        </mxCell>
        <mxCell id="I5j4CO6fwUK98QIkoyd3-14" value="Manager" style="whiteSpace=wrap;html=1;align=center;" vertex="1" parent="1">
          <mxGeometry x="1240" y="450" width="100" height="40" as="geometry" />
        </mxCell>
        <mxCell id="I5j4CO6fwUK98QIkoyd3-15" value="Handle" style="shape=rhombus;perimeter=rhombusPerimeter;whiteSpace=wrap;html=1;align=center;" vertex="1" parent="1">
          <mxGeometry x="780" y="220" width="120" height="60" as="geometry" />
        </mxCell>
        <mxCell id="I5j4CO6fwUK98QIkoyd3-16" value="" style="endArrow=none;html=1;rounded=0;entryX=0.5;entryY=0;entryDx=0;entryDy=0;" edge="1" parent="1" target="I5j4CO6fwUK98QIkoyd3-15">
          <mxGeometry relative="1" as="geometry">
            <mxPoint x="760" y="180" as="sourcePoint" />
            <mxPoint x="920" y="180" as="targetPoint" />
          </mxGeometry>
        </mxCell>
        <mxCell id="I5j4CO6fwUK98QIkoyd3-17" value="1" style="resizable=0;html=1;whiteSpace=wrap;align=right;verticalAlign=bottom;" connectable="0" vertex="1" parent="I5j4CO6fwUK98QIkoyd3-16">
          <mxGeometry x="1" relative="1" as="geometry" />
        </mxCell>
        <mxCell id="I5j4CO6fwUK98QIkoyd3-18" value="" style="endArrow=none;html=1;rounded=0;entryX=0.5;entryY=0;entryDx=0;entryDy=0;exitX=0.5;exitY=1;exitDx=0;exitDy=0;" edge="1" parent="1" source="I5j4CO6fwUK98QIkoyd3-15" target="I5j4CO6fwUK98QIkoyd3-8">
          <mxGeometry relative="1" as="geometry">
            <mxPoint x="750" y="300" as="sourcePoint" />
            <mxPoint x="910" y="290" as="targetPoint" />
          </mxGeometry>
        </mxCell>
        <mxCell id="I5j4CO6fwUK98QIkoyd3-19" value="N" style="resizable=0;html=1;whiteSpace=wrap;align=right;verticalAlign=bottom;" connectable="0" vertex="1" parent="I5j4CO6fwUK98QIkoyd3-18">
          <mxGeometry x="1" relative="1" as="geometry" />
        </mxCell>
        <mxCell id="I5j4CO6fwUK98QIkoyd3-20" value="assossiated" style="shape=rhombus;perimeter=rhombusPerimeter;whiteSpace=wrap;html=1;align=center;" vertex="1" parent="1">
          <mxGeometry x="580" y="230" width="120" height="60" as="geometry" />
        </mxCell>
        <mxCell id="I5j4CO6fwUK98QIkoyd3-21" value="" style="endArrow=none;html=1;rounded=0;entryX=0.573;entryY=-0.017;entryDx=0;entryDy=0;entryPerimeter=0;" edge="1" parent="1" target="I5j4CO6fwUK98QIkoyd3-20">
          <mxGeometry relative="1" as="geometry">
            <mxPoint x="580" y="180" as="sourcePoint" />
            <mxPoint x="740" y="180" as="targetPoint" />
          </mxGeometry>
        </mxCell>
        <mxCell id="I5j4CO6fwUK98QIkoyd3-22" value="N" style="resizable=0;html=1;whiteSpace=wrap;align=right;verticalAlign=bottom;" connectable="0" vertex="1" parent="I5j4CO6fwUK98QIkoyd3-21">
          <mxGeometry x="1" relative="1" as="geometry" />
        </mxCell>
        <mxCell id="I5j4CO6fwUK98QIkoyd3-23" value="" style="endArrow=none;html=1;rounded=0;entryX=0.25;entryY=0;entryDx=0;entryDy=0;" edge="1" parent="1" target="I5j4CO6fwUK98QIkoyd3-8">
          <mxGeometry relative="1" as="geometry">
            <mxPoint x="640" y="290" as="sourcePoint" />
            <mxPoint x="800" y="290" as="targetPoint" />
          </mxGeometry>
        </mxCell>
        <mxCell id="I5j4CO6fwUK98QIkoyd3-24" value="M" style="resizable=0;html=1;whiteSpace=wrap;align=left;verticalAlign=bottom;" connectable="0" vertex="1" parent="I5j4CO6fwUK98QIkoyd3-23">
          <mxGeometry x="-1" relative="1" as="geometry">
            <mxPoint x="70" y="50" as="offset" />
          </mxGeometry>
        </mxCell>
        <mxCell id="I5j4CO6fwUK98QIkoyd3-25" value="" style="resizable=0;html=1;whiteSpace=wrap;align=right;verticalAlign=bottom;" connectable="0" vertex="1" parent="I5j4CO6fwUK98QIkoyd3-23">
          <mxGeometry x="1" relative="1" as="geometry" />
        </mxCell>
        <mxCell id="I5j4CO6fwUK98QIkoyd3-26" value="assossiated" style="shape=rhombus;perimeter=rhombusPerimeter;whiteSpace=wrap;html=1;align=center;" vertex="1" parent="1">
          <mxGeometry x="740" y="425" width="120" height="60" as="geometry" />
        </mxCell>
        <mxCell id="I5j4CO6fwUK98QIkoyd3-27" value="" style="endArrow=none;html=1;rounded=0;exitX=0.75;exitY=1;exitDx=0;exitDy=0;" edge="1" parent="1" source="I5j4CO6fwUK98QIkoyd3-8">
          <mxGeometry relative="1" as="geometry">
            <mxPoint x="790" y="351" as="sourcePoint" />
            <mxPoint x="800" y="420" as="targetPoint" />
            <Array as="points">
              <mxPoint x="800" y="420" />
            </Array>
          </mxGeometry>
        </mxCell>
        <mxCell id="I5j4CO6fwUK98QIkoyd3-28" value="N" style="resizable=0;html=1;whiteSpace=wrap;align=right;verticalAlign=bottom;" connectable="0" vertex="1" parent="I5j4CO6fwUK98QIkoyd3-27">
          <mxGeometry x="1" relative="1" as="geometry">
            <mxPoint x="-10" y="10" as="offset" />
          </mxGeometry>
        </mxCell>
        <mxCell id="I5j4CO6fwUK98QIkoyd3-29" value="" style="endArrow=none;html=1;rounded=0;entryX=0.5;entryY=1;entryDx=0;entryDy=0;exitX=0.75;exitY=0;exitDx=0;exitDy=0;" edge="1" parent="1" source="I5j4CO6fwUK98QIkoyd3-11" target="I5j4CO6fwUK98QIkoyd3-26">
          <mxGeometry relative="1" as="geometry">
            <mxPoint x="800" y="525" as="sourcePoint" />
            <mxPoint x="885" y="575" as="targetPoint" />
          </mxGeometry>
        </mxCell>
        <mxCell id="I5j4CO6fwUK98QIkoyd3-30" value="M" style="resizable=0;html=1;whiteSpace=wrap;align=left;verticalAlign=bottom;" connectable="0" vertex="1" parent="I5j4CO6fwUK98QIkoyd3-29">
          <mxGeometry x="-1" relative="1" as="geometry">
            <mxPoint x="5" as="offset" />
          </mxGeometry>
        </mxCell>
        <mxCell id="I5j4CO6fwUK98QIkoyd3-31" value="" style="resizable=0;html=1;whiteSpace=wrap;align=right;verticalAlign=bottom;" connectable="0" vertex="1" parent="I5j4CO6fwUK98QIkoyd3-29">
          <mxGeometry x="1" relative="1" as="geometry" />
        </mxCell>
        <mxCell id="I5j4CO6fwUK98QIkoyd3-32" value="involve" style="shape=rhombus;perimeter=rhombusPerimeter;whiteSpace=wrap;html=1;align=center;" vertex="1" parent="1">
          <mxGeometry x="555" y="335" width="90" height="50" as="geometry" />
        </mxCell>
        <mxCell id="I5j4CO6fwUK98QIkoyd3-33" value="" style="endArrow=none;html=1;rounded=0;entryX=0;entryY=0.5;entryDx=0;entryDy=0;exitX=1;exitY=0.75;exitDx=0;exitDy=0;exitPerimeter=0;" edge="1" parent="1" target="I5j4CO6fwUK98QIkoyd3-32">
          <mxGeometry relative="1" as="geometry">
            <mxPoint x="490" y="360" as="sourcePoint" />
            <mxPoint x="549" y="390" as="targetPoint" />
          </mxGeometry>
        </mxCell>
        <mxCell id="I5j4CO6fwUK98QIkoyd3-34" value="N" style="resizable=0;html=1;whiteSpace=wrap;align=right;verticalAlign=bottom;" connectable="0" vertex="1" parent="I5j4CO6fwUK98QIkoyd3-33">
          <mxGeometry x="1" relative="1" as="geometry">
            <mxPoint as="offset" />
          </mxGeometry>
        </mxCell>
        <mxCell id="I5j4CO6fwUK98QIkoyd3-35" value="" style="endArrow=none;html=1;rounded=0;entryX=0.5;entryY=1;entryDx=0;entryDy=0;exitX=0;exitY=0.5;exitDx=0;exitDy=0;" edge="1" parent="1" source="I5j4CO6fwUK98QIkoyd3-8">
          <mxGeometry relative="1" as="geometry">
            <mxPoint x="690" y="360" as="sourcePoint" />
            <mxPoint x="645" y="360" as="targetPoint" />
          </mxGeometry>
        </mxCell>
        <mxCell id="I5j4CO6fwUK98QIkoyd3-36" value="M" style="resizable=0;html=1;whiteSpace=wrap;align=left;verticalAlign=bottom;" connectable="0" vertex="1" parent="I5j4CO6fwUK98QIkoyd3-35">
          <mxGeometry x="-1" relative="1" as="geometry">
            <mxPoint x="-20" y="15" as="offset" />
          </mxGeometry>
        </mxCell>
        <mxCell id="I5j4CO6fwUK98QIkoyd3-37" value="" style="resizable=0;html=1;whiteSpace=wrap;align=right;verticalAlign=bottom;" connectable="0" vertex="1" parent="I5j4CO6fwUK98QIkoyd3-35">
          <mxGeometry x="1" relative="1" as="geometry" />
        </mxCell>
        <mxCell id="I5j4CO6fwUK98QIkoyd3-38" value="involve" style="shape=rhombus;perimeter=rhombusPerimeter;whiteSpace=wrap;html=1;align=center;" vertex="1" parent="1">
          <mxGeometry x="630" y="470" width="90" height="50" as="geometry" />
        </mxCell>
        <mxCell id="I5j4CO6fwUK98QIkoyd3-39" value="" style="endArrow=none;html=1;rounded=0;entryX=0;entryY=0.5;entryDx=0;entryDy=0;exitX=1;exitY=0;exitDx=0;exitDy=0;" edge="1" parent="1" target="I5j4CO6fwUK98QIkoyd3-38" source="I5j4CO6fwUK98QIkoyd3-9">
          <mxGeometry relative="1" as="geometry">
            <mxPoint x="520" y="435" as="sourcePoint" />
            <mxPoint x="579" y="465" as="targetPoint" />
          </mxGeometry>
        </mxCell>
        <mxCell id="I5j4CO6fwUK98QIkoyd3-40" value="N" style="resizable=0;html=1;whiteSpace=wrap;align=right;verticalAlign=bottom;" connectable="0" vertex="1" parent="I5j4CO6fwUK98QIkoyd3-39">
          <mxGeometry x="1" relative="1" as="geometry">
            <mxPoint x="10" y="25" as="offset" />
          </mxGeometry>
        </mxCell>
        <mxCell id="I5j4CO6fwUK98QIkoyd3-41" value="" style="endArrow=none;html=1;rounded=0;entryX=0.594;entryY=-0.007;entryDx=0;entryDy=0;exitX=0;exitY=1;exitDx=0;exitDy=0;entryPerimeter=0;" edge="1" parent="1" source="I5j4CO6fwUK98QIkoyd3-8" target="I5j4CO6fwUK98QIkoyd3-38">
          <mxGeometry relative="1" as="geometry">
            <mxPoint x="730" y="435" as="sourcePoint" />
            <mxPoint x="675" y="435" as="targetPoint" />
          </mxGeometry>
        </mxCell>
        <mxCell id="I5j4CO6fwUK98QIkoyd3-42" value="M" style="resizable=0;html=1;whiteSpace=wrap;align=left;verticalAlign=bottom;" connectable="0" vertex="1" parent="I5j4CO6fwUK98QIkoyd3-41">
          <mxGeometry x="-1" relative="1" as="geometry">
            <mxPoint x="10" y="15" as="offset" />
          </mxGeometry>
        </mxCell>
        <mxCell id="I5j4CO6fwUK98QIkoyd3-43" value="" style="resizable=0;html=1;whiteSpace=wrap;align=right;verticalAlign=bottom;" connectable="0" vertex="1" parent="I5j4CO6fwUK98QIkoyd3-41">
          <mxGeometry x="1" relative="1" as="geometry" />
        </mxCell>
        <mxCell id="I5j4CO6fwUK98QIkoyd3-44" value="involve" style="shape=rhombus;perimeter=rhombusPerimeter;whiteSpace=wrap;html=1;align=center;" vertex="1" parent="1">
          <mxGeometry x="425" y="250" width="90" height="50" as="geometry" />
        </mxCell>
        <mxCell id="I5j4CO6fwUK98QIkoyd3-45" value="" style="endArrow=none;html=1;rounded=0;entryX=0.452;entryY=0.103;entryDx=0;entryDy=0;exitX=1;exitY=0.5;exitDx=0;exitDy=0;entryPerimeter=0;" edge="1" parent="1" target="I5j4CO6fwUK98QIkoyd3-44">
          <mxGeometry relative="1" as="geometry">
            <mxPoint x="410.0000000000002" y="190" as="sourcePoint" />
            <mxPoint x="425.0000000000002" y="285" as="targetPoint" />
          </mxGeometry>
        </mxCell>
        <mxCell id="I5j4CO6fwUK98QIkoyd3-46" value="N" style="resizable=0;html=1;whiteSpace=wrap;align=right;verticalAlign=bottom;" connectable="0" vertex="1" parent="I5j4CO6fwUK98QIkoyd3-45">
          <mxGeometry x="1" relative="1" as="geometry">
            <mxPoint as="offset" />
          </mxGeometry>
        </mxCell>
        <mxCell id="I5j4CO6fwUK98QIkoyd3-47" value="" style="endArrow=none;html=1;rounded=0;entryX=0.5;entryY=1;entryDx=0;entryDy=0;exitX=0;exitY=0.25;exitDx=0;exitDy=0;" edge="1" parent="1" source="I5j4CO6fwUK98QIkoyd3-8">
          <mxGeometry relative="1" as="geometry">
            <mxPoint x="570" y="275" as="sourcePoint" />
            <mxPoint x="515" y="275" as="targetPoint" />
          </mxGeometry>
        </mxCell>
        <mxCell id="I5j4CO6fwUK98QIkoyd3-49" value="" style="resizable=0;html=1;whiteSpace=wrap;align=right;verticalAlign=bottom;" connectable="0" vertex="1" parent="I5j4CO6fwUK98QIkoyd3-47">
          <mxGeometry x="1" relative="1" as="geometry" />
        </mxCell>
        <mxCell id="I5j4CO6fwUK98QIkoyd3-50" value="1" style="resizable=0;html=1;whiteSpace=wrap;align=left;verticalAlign=bottom;" connectable="0" vertex="1" parent="1">
          <mxGeometry x="720" y="365" as="geometry">
            <mxPoint x="-24" y="-11" as="offset" />
          </mxGeometry>
        </mxCell>
        <mxCell id="I5j4CO6fwUK98QIkoyd3-51" value="generates" style="shape=rhombus;perimeter=rhombusPerimeter;whiteSpace=wrap;html=1;align=center;" vertex="1" parent="1">
          <mxGeometry x="885" y="281.84000000000003" width="90" height="50" as="geometry" />
        </mxCell>
        <mxCell id="I5j4CO6fwUK98QIkoyd3-52" value="" style="endArrow=none;html=1;rounded=0;entryX=0;entryY=0.5;entryDx=0;entryDy=0;exitX=1;exitY=0;exitDx=0;exitDy=0;" edge="1" parent="1" target="I5j4CO6fwUK98QIkoyd3-51" source="I5j4CO6fwUK98QIkoyd3-8">
          <mxGeometry relative="1" as="geometry">
            <mxPoint x="770" y="241.84" as="sourcePoint" />
            <mxPoint x="879" y="336.84000000000003" as="targetPoint" />
          </mxGeometry>
        </mxCell>
        <mxCell id="I5j4CO6fwUK98QIkoyd3-53" value="1" style="resizable=0;html=1;whiteSpace=wrap;align=right;verticalAlign=bottom;" connectable="0" vertex="1" parent="I5j4CO6fwUK98QIkoyd3-52">
          <mxGeometry x="1" relative="1" as="geometry">
            <mxPoint as="offset" />
          </mxGeometry>
        </mxCell>
        <mxCell id="I5j4CO6fwUK98QIkoyd3-54" value="" style="endArrow=none;html=1;rounded=0;entryX=0.5;entryY=1;entryDx=0;entryDy=0;exitX=0.151;exitY=0.972;exitDx=0;exitDy=0;exitPerimeter=0;" edge="1" parent="1" source="I5j4CO6fwUK98QIkoyd3-3">
          <mxGeometry relative="1" as="geometry">
            <mxPoint x="928.8000000000002" y="100.00000000000009" as="sourcePoint" />
            <mxPoint x="975" y="306.84000000000003" as="targetPoint" />
          </mxGeometry>
        </mxCell>
        <mxCell id="I5j4CO6fwUK98QIkoyd3-55" value="" style="resizable=0;html=1;whiteSpace=wrap;align=right;verticalAlign=bottom;" connectable="0" vertex="1" parent="I5j4CO6fwUK98QIkoyd3-54">
          <mxGeometry x="1" relative="1" as="geometry" />
        </mxCell>
        <mxCell id="I5j4CO6fwUK98QIkoyd3-56" value="1" style="resizable=0;html=1;whiteSpace=wrap;align=right;verticalAlign=bottom;" connectable="0" vertex="1" parent="1">
          <mxGeometry x="969.9981444773614" y="219.99693238840933" as="geometry" />
        </mxCell>
        <mxCell id="I5j4CO6fwUK98QIkoyd3-57" value="assossiated" style="shape=rhombus;perimeter=rhombusPerimeter;whiteSpace=wrap;html=1;align=center;" vertex="1" parent="1">
          <mxGeometry x="220" y="60" width="120" height="60" as="geometry" />
        </mxCell>
        <mxCell id="I5j4CO6fwUK98QIkoyd3-58" value="" style="endArrow=none;html=1;rounded=0;entryX=0;entryY=0.5;entryDx=0;entryDy=0;exitX=1;exitY=0.75;exitDx=0;exitDy=0;exitPerimeter=0;" edge="1" parent="1" target="I5j4CO6fwUK98QIkoyd3-57">
          <mxGeometry relative="1" as="geometry">
            <mxPoint x="180" y="160" as="sourcePoint" />
            <mxPoint x="229" y="190" as="targetPoint" />
          </mxGeometry>
        </mxCell>
        <mxCell id="I5j4CO6fwUK98QIkoyd3-59" value="N" style="resizable=0;html=1;whiteSpace=wrap;align=right;verticalAlign=bottom;" connectable="0" vertex="1" parent="I5j4CO6fwUK98QIkoyd3-58">
          <mxGeometry x="1" relative="1" as="geometry">
            <mxPoint as="offset" />
          </mxGeometry>
        </mxCell>
        <mxCell id="I5j4CO6fwUK98QIkoyd3-63" value="" style="endArrow=none;html=1;rounded=0;entryX=0.5;entryY=1;entryDx=0;entryDy=0;exitX=0.75;exitY=0;exitDx=0;exitDy=0;" edge="1" parent="1" source="I5j4CO6fwUK98QIkoyd3-7">
          <mxGeometry relative="1" as="geometry">
            <mxPoint x="230" y="185" as="sourcePoint" />
            <mxPoint x="280" y="120" as="targetPoint" />
            <Array as="points">
              <mxPoint x="360" y="120" />
              <mxPoint x="340" y="90" />
            </Array>
          </mxGeometry>
        </mxCell>
        <mxCell id="I5j4CO6fwUK98QIkoyd3-64" value="1" style="resizable=0;html=1;whiteSpace=wrap;align=left;verticalAlign=bottom;" connectable="0" vertex="1" parent="I5j4CO6fwUK98QIkoyd3-63">
          <mxGeometry x="-1" relative="1" as="geometry">
            <mxPoint x="-5" as="offset" />
          </mxGeometry>
        </mxCell>
        <mxCell id="I5j4CO6fwUK98QIkoyd3-65" value="" style="resizable=0;html=1;whiteSpace=wrap;align=right;verticalAlign=bottom;" connectable="0" vertex="1" parent="I5j4CO6fwUK98QIkoyd3-63">
          <mxGeometry x="1" relative="1" as="geometry" />
        </mxCell>
        <mxCell id="I5j4CO6fwUK98QIkoyd3-66" value="has" style="shape=rhombus;perimeter=rhombusPerimeter;whiteSpace=wrap;html=1;align=center;" vertex="1" parent="1">
          <mxGeometry x="-20" y="150" width="120" height="60" as="geometry" />
        </mxCell>
        <mxCell id="I5j4CO6fwUK98QIkoyd3-67" value="" style="endArrow=none;html=1;rounded=0;entryX=0;entryY=0.5;entryDx=0;entryDy=0;exitX=1;exitY=0.75;exitDx=0;exitDy=0;exitPerimeter=0;" edge="1" parent="1" target="I5j4CO6fwUK98QIkoyd3-66">
          <mxGeometry relative="1" as="geometry">
            <mxPoint x="-60" y="250" as="sourcePoint" />
            <mxPoint x="-11" y="280" as="targetPoint" />
          </mxGeometry>
        </mxCell>
        <mxCell id="I5j4CO6fwUK98QIkoyd3-68" value="1" style="resizable=0;html=1;whiteSpace=wrap;align=right;verticalAlign=bottom;" connectable="0" vertex="1" parent="I5j4CO6fwUK98QIkoyd3-67">
          <mxGeometry x="1" relative="1" as="geometry">
            <mxPoint as="offset" />
          </mxGeometry>
        </mxCell>
        <mxCell id="I5j4CO6fwUK98QIkoyd3-69" value="" style="endArrow=none;html=1;rounded=0;entryX=0.5;entryY=1;entryDx=0;entryDy=0;exitX=0;exitY=0.25;exitDx=0;exitDy=0;" edge="1" parent="1" source="I5j4CO6fwUK98QIkoyd3-6">
          <mxGeometry relative="1" as="geometry">
            <mxPoint x="145" y="250" as="sourcePoint" />
            <mxPoint x="40" y="210" as="targetPoint" />
            <Array as="points">
              <mxPoint x="120" y="180" />
              <mxPoint x="100" y="180" />
            </Array>
          </mxGeometry>
        </mxCell>
        <mxCell id="I5j4CO6fwUK98QIkoyd3-70" value="1" style="resizable=0;html=1;whiteSpace=wrap;align=left;verticalAlign=bottom;" connectable="0" vertex="1" parent="I5j4CO6fwUK98QIkoyd3-69">
          <mxGeometry x="-1" relative="1" as="geometry">
            <mxPoint x="-10" y="10" as="offset" />
          </mxGeometry>
        </mxCell>
        <mxCell id="I5j4CO6fwUK98QIkoyd3-71" value="" style="resizable=0;html=1;whiteSpace=wrap;align=right;verticalAlign=bottom;" connectable="0" vertex="1" parent="I5j4CO6fwUK98QIkoyd3-69">
          <mxGeometry x="1" relative="1" as="geometry" />
        </mxCell>
        <mxCell id="I5j4CO6fwUK98QIkoyd3-74" value="assossiated" style="shape=rhombus;perimeter=rhombusPerimeter;whiteSpace=wrap;html=1;align=center;" vertex="1" parent="1">
          <mxGeometry x="880" y="420" width="120" height="60" as="geometry" />
        </mxCell>
        <mxCell id="I5j4CO6fwUK98QIkoyd3-75" value="" style="endArrow=none;html=1;rounded=0;entryX=0.5;entryY=0;entryDx=0;entryDy=0;exitX=1;exitY=1;exitDx=0;exitDy=0;" edge="1" parent="1" source="I5j4CO6fwUK98QIkoyd3-8" target="I5j4CO6fwUK98QIkoyd3-74">
          <mxGeometry relative="1" as="geometry">
            <mxPoint x="810" y="365" as="sourcePoint" />
            <mxPoint x="979" y="366.84000000000003" as="targetPoint" />
            <Array as="points">
              <mxPoint x="870" y="430" />
            </Array>
          </mxGeometry>
        </mxCell>
        <mxCell id="I5j4CO6fwUK98QIkoyd3-76" value="1" style="resizable=0;html=1;whiteSpace=wrap;align=right;verticalAlign=bottom;" connectable="0" vertex="1" parent="I5j4CO6fwUK98QIkoyd3-75">
          <mxGeometry x="1" relative="1" as="geometry">
            <mxPoint as="offset" />
          </mxGeometry>
        </mxCell>
        <mxCell id="I5j4CO6fwUK98QIkoyd3-77" value="" style="endArrow=none;html=1;rounded=0;entryX=0.5;entryY=1;entryDx=0;entryDy=0;exitX=0.375;exitY=-0.015;exitDx=0;exitDy=0;exitPerimeter=0;" edge="1" parent="1" target="I5j4CO6fwUK98QIkoyd3-74" source="I5j4CO6fwUK98QIkoyd3-4">
          <mxGeometry relative="1" as="geometry">
            <mxPoint x="1010.52" y="505.08000000000015" as="sourcePoint" />
            <mxPoint x="1005" y="541.84" as="targetPoint" />
          </mxGeometry>
        </mxCell>
        <mxCell id="I5j4CO6fwUK98QIkoyd3-78" value="1" style="resizable=0;html=1;whiteSpace=wrap;align=left;verticalAlign=bottom;" connectable="0" vertex="1" parent="I5j4CO6fwUK98QIkoyd3-77">
          <mxGeometry x="-1" relative="1" as="geometry">
            <mxPoint x="-1" y="-5" as="offset" />
          </mxGeometry>
        </mxCell>
        <mxCell id="I5j4CO6fwUK98QIkoyd3-79" value="" style="resizable=0;html=1;whiteSpace=wrap;align=right;verticalAlign=bottom;" connectable="0" vertex="1" parent="I5j4CO6fwUK98QIkoyd3-77">
          <mxGeometry x="1" relative="1" as="geometry" />
        </mxCell>
        <mxCell id="I5j4CO6fwUK98QIkoyd3-81" value="assossiated" style="shape=rhombus;perimeter=rhombusPerimeter;whiteSpace=wrap;html=1;align=center;" vertex="1" parent="1">
          <mxGeometry x="890" y="340" width="90" height="50" as="geometry" />
        </mxCell>
        <mxCell id="I5j4CO6fwUK98QIkoyd3-82" value="" style="endArrow=none;html=1;rounded=0;entryX=0;entryY=0.5;entryDx=0;entryDy=0;exitX=1;exitY=0.5;exitDx=0;exitDy=0;" edge="1" parent="1" target="I5j4CO6fwUK98QIkoyd3-81" source="I5j4CO6fwUK98QIkoyd3-8">
          <mxGeometry relative="1" as="geometry">
            <mxPoint x="815" y="398.15999999999997" as="sourcePoint" />
            <mxPoint x="884" y="395" as="targetPoint" />
          </mxGeometry>
        </mxCell>
        <mxCell id="I5j4CO6fwUK98QIkoyd3-83" value="1" style="resizable=0;html=1;whiteSpace=wrap;align=right;verticalAlign=bottom;" connectable="0" vertex="1" parent="I5j4CO6fwUK98QIkoyd3-82">
          <mxGeometry x="1" relative="1" as="geometry">
            <mxPoint as="offset" />
          </mxGeometry>
        </mxCell>
        <mxCell id="I5j4CO6fwUK98QIkoyd3-84" value="" style="endArrow=none;html=1;rounded=0;entryX=0.5;entryY=1;entryDx=0;entryDy=0;exitX=0;exitY=0.75;exitDx=0;exitDy=0;" edge="1" parent="1" source="I5j4CO6fwUK98QIkoyd3-2">
          <mxGeometry relative="1" as="geometry">
            <mxPoint x="1065" y="397.15999999999997" as="sourcePoint" />
            <mxPoint x="980" y="365" as="targetPoint" />
          </mxGeometry>
        </mxCell>
        <mxCell id="I5j4CO6fwUK98QIkoyd3-85" value="" style="resizable=0;html=1;whiteSpace=wrap;align=right;verticalAlign=bottom;" connectable="0" vertex="1" parent="I5j4CO6fwUK98QIkoyd3-84">
          <mxGeometry x="1" relative="1" as="geometry" />
        </mxCell>
        <mxCell id="I5j4CO6fwUK98QIkoyd3-86" value="1" style="resizable=0;html=1;whiteSpace=wrap;align=right;verticalAlign=bottom;" connectable="0" vertex="1" parent="1">
          <mxGeometry x="979.9981444773614" y="229.99693238840933" as="geometry">
            <mxPoint x="72" y="138" as="offset" />
          </mxGeometry>
        </mxCell>
        <mxCell id="I5j4CO6fwUK98QIkoyd3-87" value="involve" style="shape=rhombus;perimeter=rhombusPerimeter;whiteSpace=wrap;html=1;align=center;" vertex="1" parent="1">
          <mxGeometry x="525" y="460" width="90" height="50" as="geometry" />
        </mxCell>
        <mxCell id="I5j4CO6fwUK98QIkoyd3-88" value="" style="endArrow=none;html=1;rounded=0;entryX=0;entryY=0.5;entryDx=0;entryDy=0;exitX=1;exitY=0.75;exitDx=0;exitDy=0;exitPerimeter=0;" edge="1" parent="1" target="I5j4CO6fwUK98QIkoyd3-87">
          <mxGeometry relative="1" as="geometry">
            <mxPoint x="460" y="485" as="sourcePoint" />
            <mxPoint x="519" y="515" as="targetPoint" />
          </mxGeometry>
        </mxCell>
        <mxCell id="I5j4CO6fwUK98QIkoyd3-89" value="M" style="resizable=0;html=1;whiteSpace=wrap;align=right;verticalAlign=bottom;" connectable="0" vertex="1" parent="I5j4CO6fwUK98QIkoyd3-88">
          <mxGeometry x="1" relative="1" as="geometry">
            <mxPoint as="offset" />
          </mxGeometry>
        </mxCell>
        <mxCell id="I5j4CO6fwUK98QIkoyd3-90" value="" style="endArrow=none;html=1;rounded=0;entryX=0.5;entryY=1;entryDx=0;entryDy=0;exitX=0;exitY=0.75;exitDx=0;exitDy=0;" edge="1" parent="1" source="I5j4CO6fwUK98QIkoyd3-8">
          <mxGeometry relative="1" as="geometry">
            <mxPoint x="680" y="485" as="sourcePoint" />
            <mxPoint x="615" y="485" as="targetPoint" />
          </mxGeometry>
        </mxCell>
        <mxCell id="I5j4CO6fwUK98QIkoyd3-91" value="1" style="resizable=0;html=1;whiteSpace=wrap;align=left;verticalAlign=bottom;" connectable="0" vertex="1" parent="I5j4CO6fwUK98QIkoyd3-90">
          <mxGeometry x="-1" relative="1" as="geometry">
            <mxPoint x="-100" y="100" as="offset" />
          </mxGeometry>
        </mxCell>
        <mxCell id="I5j4CO6fwUK98QIkoyd3-92" value="" style="resizable=0;html=1;whiteSpace=wrap;align=right;verticalAlign=bottom;" connectable="0" vertex="1" parent="I5j4CO6fwUK98QIkoyd3-90">
          <mxGeometry x="1" relative="1" as="geometry" />
        </mxCell>
        <mxCell id="I5j4CO6fwUK98QIkoyd3-93" value="involve" style="shape=rhombus;perimeter=rhombusPerimeter;whiteSpace=wrap;html=1;align=center;" vertex="1" parent="1">
          <mxGeometry x="355" y="550" width="90" height="50" as="geometry" />
        </mxCell>
        <mxCell id="I5j4CO6fwUK98QIkoyd3-94" value="" style="endArrow=none;html=1;rounded=0;entryX=0;entryY=0.5;entryDx=0;entryDy=0;exitX=0.114;exitY=0.964;exitDx=0;exitDy=0;exitPerimeter=0;" edge="1" parent="1" target="I5j4CO6fwUK98QIkoyd3-93" source="I5j4CO6fwUK98QIkoyd3-10">
          <mxGeometry relative="1" as="geometry">
            <mxPoint x="290" y="575" as="sourcePoint" />
            <mxPoint x="349" y="605" as="targetPoint" />
          </mxGeometry>
        </mxCell>
        <mxCell id="I5j4CO6fwUK98QIkoyd3-95" value="N" style="resizable=0;html=1;whiteSpace=wrap;align=right;verticalAlign=bottom;" connectable="0" vertex="1" parent="I5j4CO6fwUK98QIkoyd3-94">
          <mxGeometry x="1" relative="1" as="geometry">
            <mxPoint as="offset" />
          </mxGeometry>
        </mxCell>
        <mxCell id="I5j4CO6fwUK98QIkoyd3-96" value="" style="endArrow=none;html=1;rounded=0;entryX=0.5;entryY=1;entryDx=0;entryDy=0;exitX=0;exitY=0.5;exitDx=0;exitDy=0;" edge="1" parent="1">
          <mxGeometry relative="1" as="geometry">
            <mxPoint x="510" y="575" as="sourcePoint" />
            <mxPoint x="445" y="575" as="targetPoint" />
          </mxGeometry>
        </mxCell>
        <mxCell id="I5j4CO6fwUK98QIkoyd3-97" value="1" style="resizable=0;html=1;whiteSpace=wrap;align=left;verticalAlign=bottom;" connectable="0" vertex="1" parent="I5j4CO6fwUK98QIkoyd3-96">
          <mxGeometry x="-1" relative="1" as="geometry">
            <mxPoint x="-20" y="15" as="offset" />
          </mxGeometry>
        </mxCell>
        <mxCell id="I5j4CO6fwUK98QIkoyd3-98" value="" style="resizable=0;html=1;whiteSpace=wrap;align=right;verticalAlign=bottom;" connectable="0" vertex="1" parent="I5j4CO6fwUK98QIkoyd3-96">
          <mxGeometry x="1" relative="1" as="geometry" />
        </mxCell>
        <mxCell id="I5j4CO6fwUK98QIkoyd3-99" value="operates" style="shape=rhombus;perimeter=rhombusPerimeter;whiteSpace=wrap;html=1;align=center;" vertex="1" parent="1">
          <mxGeometry x="445" y="640" width="90" height="50" as="geometry" />
        </mxCell>
        <mxCell id="I5j4CO6fwUK98QIkoyd3-100" value="" style="endArrow=none;html=1;rounded=0;entryX=0;entryY=0.5;entryDx=0;entryDy=0;exitX=0;exitY=0.5;exitDx=0;exitDy=0;" edge="1" parent="1" target="I5j4CO6fwUK98QIkoyd3-99" source="I5j4CO6fwUK98QIkoyd3-10">
          <mxGeometry relative="1" as="geometry">
            <mxPoint x="190" y="665" as="sourcePoint" />
            <mxPoint x="439" y="695" as="targetPoint" />
            <Array as="points">
              <mxPoint x="250" y="500" />
              <mxPoint x="250" y="665" />
            </Array>
          </mxGeometry>
        </mxCell>
        <mxCell id="I5j4CO6fwUK98QIkoyd3-101" value="M" style="resizable=0;html=1;whiteSpace=wrap;align=right;verticalAlign=bottom;" connectable="0" vertex="1" parent="I5j4CO6fwUK98QIkoyd3-100">
          <mxGeometry x="1" relative="1" as="geometry">
            <mxPoint as="offset" />
          </mxGeometry>
        </mxCell>
        <mxCell id="I5j4CO6fwUK98QIkoyd3-102" value="" style="endArrow=none;html=1;rounded=0;entryX=0.5;entryY=1;entryDx=0;entryDy=0;exitX=0.5;exitY=1;exitDx=0;exitDy=0;" edge="1" parent="1" source="I5j4CO6fwUK98QIkoyd3-4">
          <mxGeometry relative="1" as="geometry">
            <mxPoint x="600" y="665" as="sourcePoint" />
            <mxPoint x="535" y="665" as="targetPoint" />
            <Array as="points">
              <mxPoint x="1020" y="665" />
            </Array>
          </mxGeometry>
        </mxCell>
        <mxCell id="I5j4CO6fwUK98QIkoyd3-103" value="1" style="resizable=0;html=1;whiteSpace=wrap;align=left;verticalAlign=bottom;" connectable="0" vertex="1" parent="I5j4CO6fwUK98QIkoyd3-102">
          <mxGeometry x="-1" relative="1" as="geometry">
            <mxPoint x="-20" y="15" as="offset" />
          </mxGeometry>
        </mxCell>
        <mxCell id="I5j4CO6fwUK98QIkoyd3-104" value="" style="resizable=0;html=1;whiteSpace=wrap;align=right;verticalAlign=bottom;" connectable="0" vertex="1" parent="I5j4CO6fwUK98QIkoyd3-102">
          <mxGeometry x="1" relative="1" as="geometry" />
        </mxCell>
        <mxCell id="I5j4CO6fwUK98QIkoyd3-105" value="uses" style="shape=rhombus;perimeter=rhombusPerimeter;whiteSpace=wrap;html=1;align=center;" vertex="1" parent="1">
          <mxGeometry x="425" y="700" width="90" height="50" as="geometry" />
        </mxCell>
        <mxCell id="I5j4CO6fwUK98QIkoyd3-106" value="" style="endArrow=none;html=1;rounded=0;entryX=0;entryY=0.5;entryDx=0;entryDy=0;exitX=0.25;exitY=0;exitDx=0;exitDy=0;" edge="1" parent="1" target="I5j4CO6fwUK98QIkoyd3-105" source="I5j4CO6fwUK98QIkoyd3-10">
          <mxGeometry relative="1" as="geometry">
            <mxPoint x="340" y="560" as="sourcePoint" />
            <mxPoint x="419" y="755" as="targetPoint" />
            <Array as="points">
              <mxPoint x="380" y="460" />
              <mxPoint x="230" y="460" />
              <mxPoint x="230" y="725" />
            </Array>
          </mxGeometry>
        </mxCell>
        <mxCell id="I5j4CO6fwUK98QIkoyd3-107" value="M" style="resizable=0;html=1;whiteSpace=wrap;align=right;verticalAlign=bottom;" connectable="0" vertex="1" parent="I5j4CO6fwUK98QIkoyd3-106">
          <mxGeometry x="1" relative="1" as="geometry">
            <mxPoint as="offset" />
          </mxGeometry>
        </mxCell>
        <mxCell id="I5j4CO6fwUK98QIkoyd3-108" value="" style="endArrow=none;html=1;rounded=0;entryX=1;entryY=0.5;entryDx=0;entryDy=0;exitX=0.654;exitY=1.042;exitDx=0;exitDy=0;exitPerimeter=0;" edge="1" parent="1" source="I5j4CO6fwUK98QIkoyd3-2" target="I5j4CO6fwUK98QIkoyd3-105">
          <mxGeometry relative="1" as="geometry">
            <mxPoint x="1160" y="390" as="sourcePoint" />
            <mxPoint x="680" y="715" as="targetPoint" />
            <Array as="points">
              <mxPoint x="1165" y="715" />
            </Array>
          </mxGeometry>
        </mxCell>
        <mxCell id="I5j4CO6fwUK98QIkoyd3-109" value="1" style="resizable=0;html=1;whiteSpace=wrap;align=left;verticalAlign=bottom;" connectable="0" vertex="1" parent="I5j4CO6fwUK98QIkoyd3-108">
          <mxGeometry x="-1" relative="1" as="geometry">
            <mxPoint x="-20" y="15" as="offset" />
          </mxGeometry>
        </mxCell>
        <mxCell id="I5j4CO6fwUK98QIkoyd3-110" value="" style="resizable=0;html=1;whiteSpace=wrap;align=right;verticalAlign=bottom;" connectable="0" vertex="1" parent="I5j4CO6fwUK98QIkoyd3-108">
          <mxGeometry x="1" relative="1" as="geometry" />
        </mxCell>
        <mxCell id="I5j4CO6fwUK98QIkoyd3-111" value="Cashier_ID " style="ellipse;whiteSpace=wrap;html=1;align=center;fontStyle=4;" vertex="1" parent="1">
          <mxGeometry x="660" y="100" width="80" height="30" as="geometry" />
        </mxCell>
        <mxCell id="I5j4CO6fwUK98QIkoyd3-112" value="Salesperson_ID" style="ellipse;whiteSpace=wrap;html=1;align=center;fontStyle=4;" vertex="1" parent="1">
          <mxGeometry x="430" y="80" width="80" height="30" as="geometry" />
        </mxCell>
        <mxCell id="I5j4CO6fwUK98QIkoyd3-113" value="Customer_ID" style="ellipse;whiteSpace=wrap;html=1;align=center;fontStyle=4;" vertex="1" parent="1">
          <mxGeometry x="700" y="610" width="80" height="30" as="geometry" />
        </mxCell>
        <mxCell id="I5j4CO6fwUK98QIkoyd3-114" value="Company_ID " style="ellipse;whiteSpace=wrap;html=1;align=center;fontStyle=4;" vertex="1" parent="1">
          <mxGeometry x="320" y="410" width="80" height="30" as="geometry" />
        </mxCell>
        <mxCell id="I5j4CO6fwUK98QIkoyd3-115" value="Manager_ID " style="ellipse;whiteSpace=wrap;html=1;align=center;fontStyle=4;" vertex="1" parent="1">
          <mxGeometry x="1400" y="450" width="80" height="30" as="geometry" />
        </mxCell>
        <mxCell id="I5j4CO6fwUK98QIkoyd3-116" value="GAT_Id" style="ellipse;whiteSpace=wrap;html=1;align=center;fontStyle=4;" vertex="1" parent="1">
          <mxGeometry x="230" y="320" width="80" height="30" as="geometry" />
        </mxCell>
        <mxCell id="I5j4CO6fwUK98QIkoyd3-117" value="PAS_ID" style="ellipse;whiteSpace=wrap;html=1;align=center;fontStyle=4;" vertex="1" parent="1">
          <mxGeometry x="480" y="610" width="55" height="20" as="geometry" />
        </mxCell>
        <mxCell id="I5j4CO6fwUK98QIkoyd3-118" value="Sale_ID " style="ellipse;whiteSpace=wrap;html=1;align=center;fontStyle=4;" vertex="1" parent="1">
          <mxGeometry x="690" y="270" width="80" height="30" as="geometry" />
        </mxCell>
        <mxCell id="I5j4CO6fwUK98QIkoyd3-119" value="Item_ID " style="ellipse;whiteSpace=wrap;html=1;align=center;fontStyle=4;" vertex="1" parent="1">
          <mxGeometry x="-50" y="32.5" width="80" height="30" as="geometry" />
        </mxCell>
        <mxCell id="I5j4CO6fwUK98QIkoyd3-120" value="Rule_ID " style="ellipse;whiteSpace=wrap;html=1;align=center;fontStyle=4;" vertex="1" parent="1">
          <mxGeometry x="-160" y="331.84000000000003" width="80" height="30" as="geometry" />
        </mxCell>
        <mxCell id="I5j4CO6fwUK98QIkoyd3-121" value="Receipt_Id" style="ellipse;whiteSpace=wrap;html=1;align=center;fontStyle=4;" vertex="1" parent="1">
          <mxGeometry x="940" y="75" width="80" height="30" as="geometry" />
        </mxCell>
        <mxCell id="I5j4CO6fwUK98QIkoyd3-122" value="Inventory_ID " style="ellipse;whiteSpace=wrap;html=1;align=center;fontStyle=4;" vertex="1" parent="1">
          <mxGeometry x="1030" y="580" width="80" height="30" as="geometry" />
        </mxCell>
        <mxCell id="I5j4CO6fwUK98QIkoyd3-123" value="Accounting_ID " style="ellipse;whiteSpace=wrap;html=1;align=center;fontStyle=4;" vertex="1" parent="1">
          <mxGeometry x="1110" y="280" width="100" height="30" as="geometry" />
        </mxCell>
        <mxCell id="I5j4CO6fwUK98QIkoyd3-124" value="assossiated" style="shape=rhombus;perimeter=rhombusPerimeter;whiteSpace=wrap;html=1;align=center;" vertex="1" parent="1">
          <mxGeometry x="1020" y="400" width="90" height="50" as="geometry" />
        </mxCell>
        <mxCell id="I5j4CO6fwUK98QIkoyd3-125" value="" style="endArrow=none;html=1;rounded=0;entryX=0;entryY=0.5;entryDx=0;entryDy=0;exitX=1;exitY=0.75;exitDx=0;exitDy=0;" edge="1" parent="1" target="I5j4CO6fwUK98QIkoyd3-124" source="I5j4CO6fwUK98QIkoyd3-8">
          <mxGeometry relative="1" as="geometry">
            <mxPoint x="940" y="420" as="sourcePoint" />
            <mxPoint x="1014" y="455" as="targetPoint" />
          </mxGeometry>
        </mxCell>
        <mxCell id="I5j4CO6fwUK98QIkoyd3-126" value="M" style="resizable=0;html=1;whiteSpace=wrap;align=right;verticalAlign=bottom;" connectable="0" vertex="1" parent="I5j4CO6fwUK98QIkoyd3-125">
          <mxGeometry x="1" relative="1" as="geometry">
            <mxPoint as="offset" />
          </mxGeometry>
        </mxCell>
        <mxCell id="I5j4CO6fwUK98QIkoyd3-127" value="" style="endArrow=none;html=1;rounded=0;entryX=0.5;entryY=1;entryDx=0;entryDy=0;exitX=0;exitY=0.5;exitDx=0;exitDy=0;" edge="1" parent="1" source="I5j4CO6fwUK98QIkoyd3-14">
          <mxGeometry relative="1" as="geometry">
            <mxPoint x="1190" y="430" as="sourcePoint" />
            <mxPoint x="1110" y="425" as="targetPoint" />
          </mxGeometry>
        </mxCell>
        <mxCell id="I5j4CO6fwUK98QIkoyd3-128" value="" style="resizable=0;html=1;whiteSpace=wrap;align=right;verticalAlign=bottom;" connectable="0" vertex="1" parent="I5j4CO6fwUK98QIkoyd3-127">
          <mxGeometry x="1" relative="1" as="geometry" />
        </mxCell>
        <mxCell id="I5j4CO6fwUK98QIkoyd3-129" value="1" style="resizable=0;html=1;whiteSpace=wrap;align=left;verticalAlign=bottom;" connectable="0" vertex="1" parent="1">
          <mxGeometry x="1148.1" y="406.68000000000006" as="geometry">
            <mxPoint x="72" y="50" as="offset" />
          </mxGeometry>
        </mxCell>
        <mxCell id="I5j4CO6fwUK98QIkoyd3-130" value="Name" style="ellipse;whiteSpace=wrap;html=1;align=center;" vertex="1" parent="1">
          <mxGeometry x="1390" y="500" width="100" height="40" as="geometry" />
        </mxCell>
        <mxCell id="I5j4CO6fwUK98QIkoyd3-131" value="Name" style="ellipse;whiteSpace=wrap;html=1;align=center;" vertex="1" parent="1">
          <mxGeometry x="740" y="70" width="80" height="35" as="geometry" />
        </mxCell>
        <mxCell id="I5j4CO6fwUK98QIkoyd3-132" value="Name" style="ellipse;whiteSpace=wrap;html=1;align=center;" vertex="1" parent="1">
          <mxGeometry x="500" y="45" width="80" height="35" as="geometry" />
        </mxCell>
        <mxCell id="I5j4CO6fwUK98QIkoyd3-133" value="Salary" style="ellipse;whiteSpace=wrap;html=1;align=center;" vertex="1" parent="1">
          <mxGeometry x="800" y="110" width="80" height="35" as="geometry" />
        </mxCell>
        <mxCell id="I5j4CO6fwUK98QIkoyd3-134" value="Salary" style="ellipse;whiteSpace=wrap;html=1;align=center;" vertex="1" parent="1">
          <mxGeometry x="560" y="85" width="80" height="35" as="geometry" />
        </mxCell>
        <mxCell id="I5j4CO6fwUK98QIkoyd3-135" value="Name" style="ellipse;whiteSpace=wrap;html=1;align=center;" vertex="1" parent="1">
          <mxGeometry x="800" y="610" width="80" height="35" as="geometry" />
        </mxCell>
        <mxCell id="I5j4CO6fwUK98QIkoyd3-136" value="Name" style="ellipse;whiteSpace=wrap;html=1;align=center;" vertex="1" parent="1">
          <mxGeometry x="410" y="407.5" width="80" height="35" as="geometry" />
        </mxCell>
        <mxCell id="I5j4CO6fwUK98QIkoyd3-137" value="Name" style="ellipse;whiteSpace=wrap;html=1;align=center;" vertex="1" parent="1">
          <mxGeometry x="230" y="365" width="80" height="35" as="geometry" />
        </mxCell>
        <mxCell id="I5j4CO6fwUK98QIkoyd3-138" value="Name" style="ellipse;whiteSpace=wrap;html=1;align=center;" vertex="1" parent="1">
          <mxGeometry x="550" y="607.5" width="70" height="22.5" as="geometry" />
        </mxCell>
        <mxCell id="I5j4CO6fwUK98QIkoyd3-139" value="Name" style="ellipse;whiteSpace=wrap;html=1;align=center;" vertex="1" parent="1">
          <mxGeometry x="1080" y="545" width="80" height="35" as="geometry" />
        </mxCell>
        <mxCell id="I5j4CO6fwUK98QIkoyd3-140" value="Name" style="ellipse;whiteSpace=wrap;html=1;align=center;" vertex="1" parent="1">
          <mxGeometry x="1230" y="285" width="80" height="35" as="geometry" />
        </mxCell>
        <mxCell id="I5j4CO6fwUK98QIkoyd3-141" value="LineItem_ID" style="ellipse;whiteSpace=wrap;html=1;align=center;fontStyle=4;" vertex="1" parent="1">
          <mxGeometry x="220" y="255" width="80" height="30" as="geometry" />
        </mxCell>
        <mxCell id="I5j4CO6fwUK98QIkoyd3-142" value="Quantity" style="ellipse;whiteSpace=wrap;html=1;align=center;" vertex="1" parent="1">
          <mxGeometry x="290" y="225" width="70" height="35" as="geometry" />
        </mxCell>
        <mxCell id="I5j4CO6fwUK98QIkoyd3-143" value="Subtotal" style="ellipse;whiteSpace=wrap;html=1;align=center;" vertex="1" parent="1">
          <mxGeometry x="350" y="260" width="60" height="30" as="geometry" />
        </mxCell>
        <mxCell id="I5j4CO6fwUK98QIkoyd3-145" value="Description" style="ellipse;whiteSpace=wrap;html=1;align=center;" vertex="1" parent="1">
          <mxGeometry x="50" y="30" width="80" height="35" as="geometry" />
        </mxCell>
        <mxCell id="I5j4CO6fwUK98QIkoyd3-146" value="Price" style="ellipse;whiteSpace=wrap;html=1;align=center;" vertex="1" parent="1">
          <mxGeometry x="140" y="32.5" width="80" height="35" as="geometry" />
        </mxCell>
        <mxCell id="I5j4CO6fwUK98QIkoyd3-147" value="Cateogry" style="ellipse;whiteSpace=wrap;html=1;align=center;" vertex="1" parent="1">
          <mxGeometry x="-150" y="32.5" width="80" height="35" as="geometry" />
        </mxCell>
        <mxCell id="I5j4CO6fwUK98QIkoyd3-148" value="Rule_Name" style="ellipse;whiteSpace=wrap;html=1;align=center;" vertex="1" parent="1">
          <mxGeometry x="-70" y="324.34" width="80" height="35" as="geometry" />
        </mxCell>
        <mxCell id="I5j4CO6fwUK98QIkoyd3-149" value="Calc_Method" style="ellipse;whiteSpace=wrap;html=1;align=center;" vertex="1" parent="1">
          <mxGeometry x="20" y="326.84" width="80" height="35" as="geometry" />
        </mxCell>
        <mxCell id="I5j4CO6fwUK98QIkoyd3-150" value="Timestamp" style="ellipse;whiteSpace=wrap;html=1;align=center;" vertex="1" parent="1">
          <mxGeometry x="1040" y="72.5" width="80" height="35" as="geometry" />
        </mxCell>
        <mxCell id="I5j4CO6fwUK98QIkoyd3-151" value="" style="endArrow=none;html=1;rounded=0;entryX=1;entryY=0;entryDx=0;entryDy=0;" edge="1" parent="1" target="I5j4CO6fwUK98QIkoyd3-3">
          <mxGeometry relative="1" as="geometry">
            <mxPoint x="1080" y="108.82" as="sourcePoint" />
            <mxPoint x="1240" y="108.82" as="targetPoint" />
          </mxGeometry>
        </mxCell>
        <mxCell id="I5j4CO6fwUK98QIkoyd3-153" value="" style="endArrow=none;html=1;rounded=0;" edge="1" parent="1">
          <mxGeometry relative="1" as="geometry">
            <mxPoint x="990" y="105" as="sourcePoint" />
            <mxPoint x="1010" y="156" as="targetPoint" />
          </mxGeometry>
        </mxCell>
        <mxCell id="I5j4CO6fwUK98QIkoyd3-154" value="" style="endArrow=none;html=1;rounded=0;entryX=1;entryY=0.5;entryDx=0;entryDy=0;" edge="1" parent="1" target="I5j4CO6fwUK98QIkoyd3-2">
          <mxGeometry relative="1" as="geometry">
            <mxPoint x="1270" y="318.75" as="sourcePoint" />
            <mxPoint x="1250" y="369.93" as="targetPoint" />
          </mxGeometry>
        </mxCell>
        <mxCell id="I5j4CO6fwUK98QIkoyd3-155" value="" style="endArrow=none;html=1;rounded=0;entryX=0.75;entryY=0;entryDx=0;entryDy=0;" edge="1" parent="1" target="I5j4CO6fwUK98QIkoyd3-2">
          <mxGeometry relative="1" as="geometry">
            <mxPoint x="1168.1" y="310.65999999999997" as="sourcePoint" />
            <mxPoint x="1148.1" y="361.84000000000003" as="targetPoint" />
          </mxGeometry>
        </mxCell>
        <mxCell id="I5j4CO6fwUK98QIkoyd3-156" value="" style="endArrow=none;html=1;rounded=0;entryX=1;entryY=0.25;entryDx=0;entryDy=0;" edge="1" parent="1" target="I5j4CO6fwUK98QIkoyd3-14">
          <mxGeometry relative="1" as="geometry">
            <mxPoint x="1400" y="460" as="sourcePoint" />
            <mxPoint x="1340" y="501.25" as="targetPoint" />
          </mxGeometry>
        </mxCell>
        <mxCell id="I5j4CO6fwUK98QIkoyd3-157" value="" style="endArrow=none;html=1;rounded=0;entryX=1;entryY=0.75;entryDx=0;entryDy=0;" edge="1" parent="1" target="I5j4CO6fwUK98QIkoyd3-14">
          <mxGeometry relative="1" as="geometry">
            <mxPoint x="1390" y="520" as="sourcePoint" />
            <mxPoint x="1330" y="561.25" as="targetPoint" />
          </mxGeometry>
        </mxCell>
        <mxCell id="I5j4CO6fwUK98QIkoyd3-158" value="" style="endArrow=none;html=1;rounded=0;entryX=1;entryY=0.5;entryDx=0;entryDy=0;" edge="1" parent="1" source="I5j4CO6fwUK98QIkoyd3-139">
          <mxGeometry relative="1" as="geometry">
            <mxPoint x="1140" y="479.38" as="sourcePoint" />
            <mxPoint x="1080" y="520.63" as="targetPoint" />
          </mxGeometry>
        </mxCell>
        <mxCell id="I5j4CO6fwUK98QIkoyd3-159" value="" style="endArrow=none;html=1;rounded=0;entryX=0.5;entryY=0;entryDx=0;entryDy=0;" edge="1" parent="1" target="I5j4CO6fwUK98QIkoyd3-122">
          <mxGeometry relative="1" as="geometry">
            <mxPoint x="1060" y="541.87" as="sourcePoint" />
            <mxPoint x="1000" y="583.12" as="targetPoint" />
          </mxGeometry>
        </mxCell>
        <mxCell id="I5j4CO6fwUK98QIkoyd3-160" value="" style="endArrow=none;html=1;rounded=0;entryX=0.5;entryY=0;entryDx=0;entryDy=0;" edge="1" parent="1" target="I5j4CO6fwUK98QIkoyd3-135">
          <mxGeometry relative="1" as="geometry">
            <mxPoint x="820" y="590" as="sourcePoint" />
            <mxPoint x="830" y="628.13" as="targetPoint" />
          </mxGeometry>
        </mxCell>
        <mxCell id="I5j4CO6fwUK98QIkoyd3-161" value="" style="endArrow=none;html=1;rounded=0;" edge="1" parent="1" target="I5j4CO6fwUK98QIkoyd3-113">
          <mxGeometry relative="1" as="geometry">
            <mxPoint x="775" y="590" as="sourcePoint" />
            <mxPoint x="785" y="628.13" as="targetPoint" />
          </mxGeometry>
        </mxCell>
        <mxCell id="I5j4CO6fwUK98QIkoyd3-162" value="" style="endArrow=none;html=1;rounded=0;" edge="1" parent="1">
          <mxGeometry relative="1" as="geometry">
            <mxPoint x="590" y="590" as="sourcePoint" />
            <mxPoint x="600" y="610" as="targetPoint" />
          </mxGeometry>
        </mxCell>
        <mxCell id="I5j4CO6fwUK98QIkoyd3-163" value="" style="endArrow=none;html=1;rounded=0;entryX=1;entryY=0;entryDx=0;entryDy=0;" edge="1" parent="1" target="I5j4CO6fwUK98QIkoyd3-117">
          <mxGeometry relative="1" as="geometry">
            <mxPoint x="535" y="590" as="sourcePoint" />
            <mxPoint x="515" y="688.13" as="targetPoint" />
          </mxGeometry>
        </mxCell>
        <mxCell id="I5j4CO6fwUK98QIkoyd3-164" value="" style="endArrow=none;html=1;rounded=0;entryX=0.5;entryY=0;entryDx=0;entryDy=0;" edge="1" parent="1">
          <mxGeometry relative="1" as="geometry">
            <mxPoint x="380" y="440" as="sourcePoint" />
            <mxPoint x="390" y="478.13" as="targetPoint" />
          </mxGeometry>
        </mxCell>
        <mxCell id="I5j4CO6fwUK98QIkoyd3-165" value="" style="endArrow=none;html=1;rounded=0;entryX=0.337;entryY=-0.036;entryDx=0;entryDy=0;entryPerimeter=0;" edge="1" parent="1" target="I5j4CO6fwUK98QIkoyd3-10">
          <mxGeometry relative="1" as="geometry">
            <mxPoint x="415" y="430.93" as="sourcePoint" />
            <mxPoint x="425" y="469.06" as="targetPoint" />
          </mxGeometry>
        </mxCell>
        <mxCell id="I5j4CO6fwUK98QIkoyd3-166" value="" style="endArrow=none;html=1;rounded=0;entryX=0;entryY=0.5;entryDx=0;entryDy=0;" edge="1" parent="1" target="I5j4CO6fwUK98QIkoyd3-13">
          <mxGeometry relative="1" as="geometry">
            <mxPoint x="310" y="335" as="sourcePoint" />
            <mxPoint x="320" y="373.13" as="targetPoint" />
            <Array as="points">
              <mxPoint x="340" y="350" />
            </Array>
          </mxGeometry>
        </mxCell>
        <mxCell id="I5j4CO6fwUK98QIkoyd3-167" value="" style="endArrow=none;html=1;rounded=0;entryX=0;entryY=0.75;entryDx=0;entryDy=0;" edge="1" parent="1" target="I5j4CO6fwUK98QIkoyd3-13">
          <mxGeometry relative="1" as="geometry">
            <mxPoint x="310" y="380" as="sourcePoint" />
            <mxPoint x="320" y="418.13" as="targetPoint" />
          </mxGeometry>
        </mxCell>
        <mxCell id="I5j4CO6fwUK98QIkoyd3-168" value="" style="endArrow=none;html=1;rounded=0;" edge="1" parent="1" target="I5j4CO6fwUK98QIkoyd3-149">
          <mxGeometry relative="1" as="geometry">
            <mxPoint x="-10" y="290" as="sourcePoint" />
            <mxPoint x="50" y="315" as="targetPoint" />
            <Array as="points">
              <mxPoint x="20" y="305" />
            </Array>
          </mxGeometry>
        </mxCell>
        <mxCell id="I5j4CO6fwUK98QIkoyd3-169" value="" style="endArrow=none;html=1;rounded=0;entryX=0.754;entryY=0.064;entryDx=0;entryDy=0;entryPerimeter=0;" edge="1" parent="1" target="I5j4CO6fwUK98QIkoyd3-148">
          <mxGeometry relative="1" as="geometry">
            <mxPoint x="-50" y="290" as="sourcePoint" />
            <mxPoint x="10" y="315" as="targetPoint" />
            <Array as="points">
              <mxPoint x="-20" y="305" />
            </Array>
          </mxGeometry>
        </mxCell>
        <mxCell id="I5j4CO6fwUK98QIkoyd3-171" value="" style="endArrow=none;html=1;rounded=0;entryX=0.643;entryY=0.072;entryDx=0;entryDy=0;entryPerimeter=0;" edge="1" parent="1" target="I5j4CO6fwUK98QIkoyd3-120">
          <mxGeometry relative="1" as="geometry">
            <mxPoint x="-100" y="290" as="sourcePoint" />
            <mxPoint x="-46" y="328" as="targetPoint" />
            <Array as="points">
              <mxPoint x="-110" y="320" />
            </Array>
          </mxGeometry>
        </mxCell>
        <mxCell id="I5j4CO6fwUK98QIkoyd3-172" value="" style="endArrow=none;html=1;rounded=0;entryX=0;entryY=0.75;entryDx=0;entryDy=0;exitX=0.732;exitY=1.006;exitDx=0;exitDy=0;exitPerimeter=0;" edge="1" parent="1" source="I5j4CO6fwUK98QIkoyd3-147">
          <mxGeometry relative="1" as="geometry">
            <mxPoint x="80" y="170" as="sourcePoint" />
            <mxPoint x="140" y="160" as="targetPoint" />
          </mxGeometry>
        </mxCell>
        <mxCell id="I5j4CO6fwUK98QIkoyd3-173" value="" style="endArrow=none;html=1;rounded=0;entryX=0.16;entryY=-0.021;entryDx=0;entryDy=0;exitX=0.732;exitY=1.006;exitDx=0;exitDy=0;exitPerimeter=0;entryPerimeter=0;" edge="1" parent="1" target="I5j4CO6fwUK98QIkoyd3-6">
          <mxGeometry relative="1" as="geometry">
            <mxPoint x="169" y="65" as="sourcePoint" />
            <mxPoint x="400" y="157" as="targetPoint" />
          </mxGeometry>
        </mxCell>
        <mxCell id="I5j4CO6fwUK98QIkoyd3-174" value="" style="endArrow=none;html=1;rounded=0;entryX=0.143;entryY=-0.021;entryDx=0;entryDy=0;exitX=0.732;exitY=1.006;exitDx=0;exitDy=0;exitPerimeter=0;entryPerimeter=0;" edge="1" parent="1" target="I5j4CO6fwUK98QIkoyd3-6">
          <mxGeometry relative="1" as="geometry">
            <mxPoint x="89" y="65" as="sourcePoint" />
            <mxPoint x="320" y="157" as="targetPoint" />
          </mxGeometry>
        </mxCell>
        <mxCell id="I5j4CO6fwUK98QIkoyd3-175" value="" style="endArrow=none;html=1;rounded=0;entryX=0.149;entryY=0.05;entryDx=0;entryDy=0;exitX=0.732;exitY=1.006;exitDx=0;exitDy=0;exitPerimeter=0;entryPerimeter=0;" edge="1" parent="1" target="I5j4CO6fwUK98QIkoyd3-6">
          <mxGeometry relative="1" as="geometry">
            <mxPoint x="-11" y="62.5" as="sourcePoint" />
            <mxPoint x="220" y="154.5" as="targetPoint" />
          </mxGeometry>
        </mxCell>
        <mxCell id="I5j4CO6fwUK98QIkoyd3-177" value="" style="endArrow=none;html=1;rounded=0;entryX=0;entryY=1;entryDx=0;entryDy=0;" edge="1" parent="1" target="I5j4CO6fwUK98QIkoyd3-7">
          <mxGeometry relative="1" as="geometry">
            <mxPoint x="240" y="255" as="sourcePoint" />
            <mxPoint x="300" y="245" as="targetPoint" />
          </mxGeometry>
        </mxCell>
        <mxCell id="I5j4CO6fwUK98QIkoyd3-178" value="" style="endArrow=none;html=1;rounded=0;entryX=0.197;entryY=1.079;entryDx=0;entryDy=0;entryPerimeter=0;" edge="1" parent="1" target="I5j4CO6fwUK98QIkoyd3-7">
          <mxGeometry relative="1" as="geometry">
            <mxPoint x="320" y="225" as="sourcePoint" />
            <mxPoint x="380" y="215" as="targetPoint" />
          </mxGeometry>
        </mxCell>
        <mxCell id="I5j4CO6fwUK98QIkoyd3-179" value="" style="endArrow=none;html=1;rounded=0;entryX=0.58;entryY=1.021;entryDx=0;entryDy=0;entryPerimeter=0;" edge="1" parent="1" target="I5j4CO6fwUK98QIkoyd3-7">
          <mxGeometry relative="1" as="geometry">
            <mxPoint x="380" y="260" as="sourcePoint" />
            <mxPoint x="440" y="250" as="targetPoint" />
          </mxGeometry>
        </mxCell>
        <mxCell id="I5j4CO6fwUK98QIkoyd3-180" value="" style="endArrow=none;html=1;rounded=0;entryX=0.58;entryY=1.021;entryDx=0;entryDy=0;entryPerimeter=0;exitX=0.149;exitY=-0.064;exitDx=0;exitDy=0;exitPerimeter=0;" edge="1" parent="1" source="I5j4CO6fwUK98QIkoyd3-12">
          <mxGeometry relative="1" as="geometry">
            <mxPoint x="490" y="169" as="sourcePoint" />
            <mxPoint x="478" y="110" as="targetPoint" />
          </mxGeometry>
        </mxCell>
        <mxCell id="I5j4CO6fwUK98QIkoyd3-181" value="" style="endArrow=none;html=1;rounded=0;entryX=0.58;entryY=1.021;entryDx=0;entryDy=0;entryPerimeter=0;exitX=0.651;exitY=-0.107;exitDx=0;exitDy=0;exitPerimeter=0;" edge="1" parent="1" source="I5j4CO6fwUK98QIkoyd3-12">
          <mxGeometry relative="1" as="geometry">
            <mxPoint x="553.5" y="137.5" as="sourcePoint" />
            <mxPoint x="541.5" y="78.5" as="targetPoint" />
          </mxGeometry>
        </mxCell>
        <mxCell id="I5j4CO6fwUK98QIkoyd3-182" value="" style="endArrow=none;html=1;rounded=0;entryX=0.58;entryY=1.021;entryDx=0;entryDy=0;entryPerimeter=0;exitX=1;exitY=0.25;exitDx=0;exitDy=0;" edge="1" parent="1" source="I5j4CO6fwUK98QIkoyd3-12">
          <mxGeometry relative="1" as="geometry">
            <mxPoint x="615" y="179" as="sourcePoint" />
            <mxPoint x="603" y="120" as="targetPoint" />
          </mxGeometry>
        </mxCell>
        <mxCell id="I5j4CO6fwUK98QIkoyd3-183" value="" style="endArrow=none;html=1;rounded=0;entryX=0.58;entryY=1.021;entryDx=0;entryDy=0;entryPerimeter=0;exitX=0.5;exitY=0;exitDx=0;exitDy=0;" edge="1" parent="1" source="I5j4CO6fwUK98QIkoyd3-1">
          <mxGeometry relative="1" as="geometry">
            <mxPoint x="720" y="177" as="sourcePoint" />
            <mxPoint x="703" y="130" as="targetPoint" />
          </mxGeometry>
        </mxCell>
        <mxCell id="I5j4CO6fwUK98QIkoyd3-184" value="" style="endArrow=none;html=1;rounded=0;entryX=0.58;entryY=1.021;entryDx=0;entryDy=0;entryPerimeter=0;exitX=1;exitY=0;exitDx=0;exitDy=0;" edge="1" parent="1" source="I5j4CO6fwUK98QIkoyd3-1">
          <mxGeometry relative="1" as="geometry">
            <mxPoint x="797" y="152" as="sourcePoint" />
            <mxPoint x="780" y="105" as="targetPoint" />
          </mxGeometry>
        </mxCell>
        <mxCell id="I5j4CO6fwUK98QIkoyd3-185" value="" style="endArrow=none;html=1;rounded=0;entryX=0.58;entryY=1.021;entryDx=0;entryDy=0;entryPerimeter=0;" edge="1" parent="1" source="I5j4CO6fwUK98QIkoyd3-1">
          <mxGeometry relative="1" as="geometry">
            <mxPoint x="800" y="195" as="sourcePoint" />
            <mxPoint x="823" y="145" as="targetPoint" />
          </mxGeometry>
        </mxCell>
      </root>
    </mxGraphModel>
  </diagram>
</mxfile>
